<svg width="336" height="336" viewBox="0 0 336 336" fill="none" xmlns="http://www.w3.org/2000/svg">
<g clip-path="url(#clip0_132_896)">
<rect width="336" height="336" fill="black"/>
<path d="M168 -42L291.435 -1.89357L367.722 103.106V232.894L291.435 337.894L168 378L44.5651 337.894L-31.7219 232.894V103.106L44.5651 -1.89357L168 -42Z" fill="#E10602"/>
<path opacity="0.0833333" d="M-215.216 529.459L-364.912 594.973L-526.265 569.155L-648.045 460.202L-691.588 302.705L-643.069 146.67L-517.894 41.6351L-355.804 20.9493L-208.261 91.1799L-122.11 230.029L-124.703 393.413L-215.216 529.459Z" fill="url(#paint0_linear_132_896)"/>
<path opacity="0.125" d="M-225.55 493.051L-378.873 530.247L-527.966 478.645L-625.493 354.63L-640.49 197.574L-568.196 57.3421L-431.562 -21.5431L-273.971 -14.0361L-145.455 77.4797L-86.8178 223.948L-116.676 378.868L-225.55 493.051Z" fill="url(#paint1_linear_132_896)"/>
<path opacity="0.166667" d="M-226.781 455.397L-378.61 465.046L-511.554 391.078L-583.403 256.978L-571.346 105.32L-479.211 -15.7433L-336.251 -67.7767L-187.853 -34.2596L-81.1339 74.1665L-49.9755 223.077L-104.271 365.194L-226.781 455.397Z" fill="url(#paint2_linear_132_896)"/>
<path opacity="0.208333" d="M-219.114 418.2L-364.712 401.962L-478.418 309.585L-524.132 170.399L-487.338 28.5936L-379.72 -70.8086L-235.444 -96.2482L-100.319 -39.6483L-17.2439 81.0211L-12.5957 227.448L-87.8499 353.144L-219.114 418.2Z" fill="url(#paint3_linear_132_896)"/>
<path opacity="0.25" d="M-203.063 383.051L-338.224 343.365L-430.471 236.905L-450.519 97.4726L-392.001 -30.6639L-273.497 -106.822H-132.63L-14.1261 -30.6639L44.3919 97.4726L24.3445 236.905L-67.9033 343.365L-203.063 383.051Z" fill="url(#paint4_linear_132_896)"/>
<path opacity="0.291667" d="M-179.417 351.376L-300.584 291.324L-370.049 175.297L-365.759 40.1338L-289.074 -71.2533L-164.343 -123.499L-31.1658 -100.017L68.1742 -8.26073L102.137 122.637L59.9406 251.116L-45.0189 336.387L-179.417 351.376Z" fill="url(#paint5_linear_132_896)"/>
<path opacity="0.333333" d="M-149.193 324.387L-253.553 247.548L-299.805 126.485L-273.262 -0.365027L-182.353 -92.728L-55.9406 -121.28L65.8407 -76.9548L144.326 26.1735L154.596 155.363L93.3915 269.597L-19.8567 332.606L-149.193 324.387Z" fill="url(#paint6_linear_132_896)"/>
<path opacity="0.375" d="M-113.591 303.051L-199.135 213.335L-222.595 91.6132L-176.523 -23.4694L-75.546 -95.3746L48.2759 -101.273L155.63 -39.2918L212.433 70.8903L200.65 194.291L124.022 291.732L6.877 332.276L-113.591 303.051Z" fill="url(#paint7_linear_132_896)"/>
<path opacity="0.416667" d="M-73.9348 288.066L-139.479 189.55L-141.356 71.2369L-78.9708 -29.3091L27.8704 -80.1657L145.246 -65.1864L235.89 10.8732L271.024 123.865L239.493 237.914L151.308 316.811L34.4662 335.507L-73.9348 288.066Z" fill="url(#paint8_linear_132_896)"/>
<path opacity="0.458333" d="M-31.621 279.842L-76.8031 176.603L-58.9974 65.3258L16.1428 -18.6604L124.761 -48.6901L232.372 -15.2292L304.81 71.0986L319.076 182.885L270.641 284.639L174.883 344.053L62.2038 342.265L-31.621 279.842Z" fill="url(#paint9_linear_132_896)"/>
<path opacity="0.5" d="M11.9365 278.506L-13.3034 174.466L21.7119 73.2955L105.865 7.11642L212.439 -3.06011L307.596 45.9969L361.126 138.712L356.031 245.649L293.932 332.856L194.542 372.646L89.4183 352.385L11.9365 278.506Z" fill="url(#paint10_linear_132_896)"/>
<path opacity="0.541667" d="M55.37 283.907L48.9373 182.687L98.2492 94.058L187.649 46.1585L288.754 54.1964L369.463 115.62L404.152 210.927L381.808 309.858L309.523 381.005L210.25 401.777L115.505 365.58L55.37 283.907Z" fill="url(#paint11_linear_132_896)"/>
<path opacity="0.583333" d="M97.4134 295.634L108.03 200.435L168.431 126.089L259.437 96.1993L352.156 120.257L417.15 190.622L433.783 284.956L396.776 373.308L317.876 427.626L222.136 430.665L139.95 381.46L97.4134 295.634Z" fill="url(#paint12_linear_132_896)"/>
<path opacity="0.625" d="M136.936 313.051L162.335 226.548L230.469 167.51L319.706 154.68L401.713 192.131L450.454 267.974V358.128L401.713 433.971L319.706 471.422L230.469 458.592L162.335 399.554L136.936 313.051Z" fill="url(#paint13_linear_132_896)"/>
<path opacity="0.666667" d="M172.983 335.33L210.515 259.601L283.032 216.185L367.509 218.867L437.126 266.794L469.78 344.752L455.103 427.987L397.756 490.075L315.945 511.302L235.645 484.929L182.351 419.329L172.983 335.33Z" fill="url(#paint14_linear_132_896)"/>
<path opacity="0.708333" d="M204.818 361.494L251.59 297.97L325.28 269.817L402.493 285.974L458.714 341.31L476.093 418.256L449.113 492.384L386.339 540.158L307.702 546.409L238.169 509.154L199.815 440.221L204.818 361.494Z" fill="url(#paint15_linear_132_896)"/>
<path opacity="0.75" d="M231.936 390.468L284.949 339.919L356.876 326.057L424.88 353.281L467.369 412.949L470.854 486.117L434.229 549.553L369.122 583.119L296.203 576.156L238.624 530.875L214.666 461.654L231.936 390.468Z" fill="url(#paint16_linear_132_896)"/>
<path opacity="0.791667" d="M254.07 421.126L310.365 383.672L377.972 382.599L435.427 418.248L464.488 479.3L455.928 546.372L412.466 598.169L347.899 618.245L282.728 600.227L237.644 549.836L226.961 483.069L254.07 421.126Z" fill="url(#paint17_linear_132_896)"/>
<path d="M60.4775 192C46.6756 192 39 184.107 39 167.964C39 151.893 46.6052 144 60.4775 144H73.504V152.391H60.4775C51.2528 152.391 47.3093 157.013 47.3093 167.964C47.3093 178.987 51.3232 183.609 60.4775 183.609H87.769V192H60.4775Z" fill="white"/>
<path d="M111.559 144L127.211 185.921C128.942 190.533 132.474 192 137.045 192C141.893 192 145.079 190.323 146.81 185.921L163.294 144H154.221L139.331 181.939C138.846 183.057 138.153 183.546 137.045 183.546C135.937 183.546 135.175 183.057 134.76 181.939L120.562 144H111.559Z" fill="white"/>
<path d="M210.908 154.061C211.393 152.943 212.154 152.454 213.262 152.454C214.371 152.454 215.132 152.943 215.548 154.061L229.746 192H238.818L223.028 150.079C221.366 145.677 218.18 144 213.332 144C208.414 144 205.229 145.677 203.497 150.079L187.083 192H196.087L210.908 154.061Z" fill="white"/>
<path d="M262.608 144V152.213H276.199V192H284.409V152.213H298V144H262.608Z" fill="white"/>
</g>
<defs>
<linearGradient id="paint0_linear_132_896" x1="-542.189" y1="196.227" x2="-701.018" y2="371.61" gradientUnits="userSpaceOnUse">
<stop offset="0.0572917" stop-color="#F4EA01"/>
<stop offset="0.0678791" stop-color="#FFA800"/>
<stop offset="1" stop-color="#FF5C00"/>
</linearGradient>
<linearGradient id="paint1_linear_132_896" x1="-480.582" y1="121.378" x2="-661.01" y2="261.511" gradientUnits="userSpaceOnUse">
<stop offset="0.0572917" stop-color="#F4EA01"/>
<stop offset="0.0678791" stop-color="#FFA800"/>
<stop offset="1" stop-color="#FF5C00"/>
</linearGradient>
<linearGradient id="paint2_linear_132_896" x1="-406.733" y1="59.7378" x2="-601.539" y2="162.601" gradientUnits="userSpaceOnUse">
<stop offset="0.0572917" stop-color="#F4EA01"/>
<stop offset="0.0678791" stop-color="#FFA800"/>
<stop offset="1" stop-color="#FF5C00"/>
</linearGradient>
<linearGradient id="paint3_linear_132_896" x1="-323.608" y1="12.8922" x2="-525.549" y2="77.8665" gradientUnits="userSpaceOnUse">
<stop offset="0.0572917" stop-color="#F4EA01"/>
<stop offset="0.0678791" stop-color="#FFA800"/>
<stop offset="1" stop-color="#FF5C00"/>
</linearGradient>
<linearGradient id="paint4_linear_132_896" x1="-234.338" y1="-18.1941" x2="-436.411" y2="9.61405" gradientUnits="userSpaceOnUse">
<stop offset="0.0572917" stop-color="#F4EA01"/>
<stop offset="0.0678791" stop-color="#FFA800"/>
<stop offset="1" stop-color="#FF5C00"/>
</linearGradient>
<linearGradient id="paint5_linear_132_896" x1="-142.096" y1="-33.1814" x2="-337.775" y2="-40.5772" gradientUnits="userSpaceOnUse">
<stop offset="0.0572917" stop-color="#F4EA01"/>
<stop offset="0.0678791" stop-color="#FFA800"/>
<stop offset="1" stop-color="#FF5C00"/>
</linearGradient>
<linearGradient id="paint6_linear_132_896" x1="-49.9748" y1="-32.3377" x2="-233.42" y2="-71.881" gradientUnits="userSpaceOnUse">
<stop offset="0.0572917" stop-color="#F4EA01"/>
<stop offset="0.0678791" stop-color="#FFA800"/>
<stop offset="1" stop-color="#FF5C00"/>
</linearGradient>
<linearGradient id="paint7_linear_132_896" x1="39.1227" y1="-16.4997" x2="-127.113" y2="-84.2191" gradientUnits="userSpaceOnUse">
<stop offset="0.0572917" stop-color="#F4EA01"/>
<stop offset="0.0678791" stop-color="#FFA800"/>
<stop offset="1" stop-color="#FF5C00"/>
</linearGradient>
<linearGradient id="paint8_linear_132_896" x1="122.59" y1="12.9871" x2="-22.4542" y2="-78.2266" gradientUnits="userSpaceOnUse">
<stop offset="0.0572917" stop-color="#F4EA01"/>
<stop offset="0.0678791" stop-color="#FFA800"/>
<stop offset="1" stop-color="#FF5C00"/>
</linearGradient>
<linearGradient id="paint9_linear_132_896" x1="198.194" y1="54.3437" x2="77.2404" y2="-55.194" gradientUnits="userSpaceOnUse">
<stop offset="0.0572917" stop-color="#F4EA01"/>
<stop offset="0.0678791" stop-color="#FFA800"/>
<stop offset="1" stop-color="#FF5C00"/>
</linearGradient>
<linearGradient id="paint10_linear_132_896" x1="264.144" y1="105.449" x2="169.053" y2="-16.9842" gradientUnits="userSpaceOnUse">
<stop offset="0.0572917" stop-color="#F4EA01"/>
<stop offset="0.0678791" stop-color="#FFA800"/>
<stop offset="1" stop-color="#FF5C00"/>
</linearGradient>
<linearGradient id="paint11_linear_132_896" x1="319.143" y1="163.938" x2="250.567" y2="34.0682" gradientUnits="userSpaceOnUse">
<stop offset="0.0572917" stop-color="#F4EA01"/>
<stop offset="0.0678791" stop-color="#FFA800"/>
<stop offset="1" stop-color="#FF5C00"/>
</linearGradient>
<linearGradient id="paint12_linear_132_896" x1="362.422" y1="227.311" x2="319.939" y2="95.2726" gradientUnits="userSpaceOnUse">
<stop offset="0.0572917" stop-color="#F4EA01"/>
<stop offset="0.0678791" stop-color="#FFA800"/>
<stop offset="1" stop-color="#FF5C00"/>
</linearGradient>
<linearGradient id="paint13_linear_132_896" x1="393.733" y1="293.035" x2="375.935" y2="163.709" gradientUnits="userSpaceOnUse">
<stop offset="0.0572917" stop-color="#F4EA01"/>
<stop offset="0.0678791" stop-color="#FFA800"/>
<stop offset="1" stop-color="#FF5C00"/>
</linearGradient>
<linearGradient id="paint14_linear_132_896" x1="413.331" y1="358.656" x2="417.953" y2="236.357" gradientUnits="userSpaceOnUse">
<stop offset="0.0572917" stop-color="#F4EA01"/>
<stop offset="0.0678791" stop-color="#FFA800"/>
<stop offset="1" stop-color="#FF5C00"/>
</linearGradient>
<linearGradient id="paint15_linear_132_896" x1="421.955" y1="421.888" x2="446.025" y2="310.225" gradientUnits="userSpaceOnUse">
<stop offset="0.0572917" stop-color="#F4EA01"/>
<stop offset="0.0678791" stop-color="#FFA800"/>
<stop offset="1" stop-color="#FF5C00"/>
</linearGradient>
<linearGradient id="paint16_linear_132_896" x1="420.761" y1="480.708" x2="460.777" y2="382.478" gradientUnits="userSpaceOnUse">
<stop offset="0.0572917" stop-color="#F4EA01"/>
<stop offset="0.0678791" stop-color="#FFA800"/>
<stop offset="1" stop-color="#FF5C00"/>
</linearGradient>
<linearGradient id="paint17_linear_132_896" x1="411.258" y1="533.426" x2="463.38" y2="450.543" gradientUnits="userSpaceOnUse">
<stop offset="0.0572917" stop-color="#F4EA01"/>
<stop offset="0.0678791" stop-color="#FFA800"/>
<stop offset="1" stop-color="#FF5C00"/>
</linearGradient>
<clipPath id="clip0_132_896">
<rect width="336" height="336" fill="white"/>
</clipPath>
</defs>
</svg>
